<?xml version="1.0" encoding="utf-8"?>
<!-- Generator: Adobe Illustrator 19.0.0, SVG Export Plug-In . SVG Version: 6.00 Build 0)  -->
<svg version="1.1" id="Layer_1" xmlns="http://www.w3.org/2000/svg" xmlns:xlink="http://www.w3.org/1999/xlink" x="0px" y="0px"
	 viewBox="0 0 960 560" style="enable-background:new 0 0 960 560;" xml:space="preserve">
<style type="text/css">
	.st0{fill:#F0A636;}
	.st1{fill:#F3B247;}
</style>
<g>
	<path d="M163.1,356.1c0,0,56.3,10.2,95-13c38.7-23.2,61.3-93.3,61.3-93.3s10.6-21.5-29.6-49.3c-40.1-27.8-65.2-38-99.3-42.6
		c0,0-20.1-1.4-33.8,10.2c-13.7,11.6-40.1,64.1-42.2,90C112.4,284,116.6,318.1,163.1,356.1z"/>
	<path class="st0" d="M157.3,177.4c0,0,20.8-29.9,92.9,5.3c72.2,35.2,67.2,61,60.5,72.7c-6.7,11.8-24.3,60.7-57,84.3
		c0,0-27.8,18-78.5,8.1c0,0,8.8-6.7,12.7-15.8c0,0-5.6,5.3-17.6,10.2c0,0,0-8.1,5.6-19.7c0,0-13.4,10.9-11.3,18c0,0-1.8,4.9-9.9-32
		c0,0-3.2,16.9,0,24.3c3.2,7.4-30.3-33.1-34.1-67.9C116.8,229.9,157.3,177.4,157.3,177.4z"/>
	<path d="M278.8,218.2c-2.1,4-18-0.3-35.6-9.5c-17.5-9.2-30-20-27.9-23.9c2.1-4,18,0.3,35.6,9.5
		C268.4,203.5,280.9,214.3,278.8,218.2z"/>
	<path class="st1" d="M174.2,183.3c0,0-39.1,44.3-38,84.1c0,0,38.7-31.3,129.2-28.5C265.4,238.9,215.7,230.1,174.2,183.3z"/>
</g>
<g>
	<path d="M363.4,324.7v-98.9h46.3c21.5,0,33.2,14.5,33.2,31.9c0,17.2-11.9,31.7-33.2,31.7h-25.2v35.3H363.4z M421.4,257.6
		c0-8.3-6.4-13.3-14.7-13.3h-22.2v26.5h22.2C415,270.8,421.4,265.8,421.4,257.6z"/>
	<path d="M443.3,288.8c0-20.8,15.4-37.5,37.1-37.5c21.5,0,35.9,16,35.9,39.3v4.4H463c1.3,8.8,8.5,16,20.6,16c6.1,0,14.4-2.5,19-7
		l8.5,12.5c-7.1,6.5-18.4,9.9-29.5,9.9C459.8,326.5,443.3,311.8,443.3,288.8z M480.4,266.7c-11.7,0-16.8,8.2-17.5,15.3h35.3
		C497.6,275.1,492.8,266.7,480.4,266.7z"/>
	<path d="M520.1,288.8c0-20.8,15.4-37.5,37.1-37.5c21.5,0,35.9,16,35.9,39.3v4.4h-53.2c1.3,8.8,8.5,16,20.6,16c6.1,0,14.4-2.5,19-7
		l8.5,12.5c-7.1,6.5-18.4,9.9-29.5,9.9C536.6,326.5,520.1,311.8,520.1,288.8z M557.2,266.7c-11.7,0-16.8,8.2-17.5,15.3H575
		C574.4,275.1,569.7,266.7,557.2,266.7z"/>
	<path d="M664.4,324.7l-15.1-48.8l-15.1,48.8H614L592.2,253h19.6l13.3,48.2l15.7-48.2h16.8l15.7,48.2l13.3-48.2h19.7l-21.8,71.6
		H664.4z"/>
	<path d="M753.6,324.7v-7.6c-4.9,5.9-13.3,9.3-22.7,9.3c-11.4,0-24.8-7.7-24.8-23.7c0-16.9,13.3-23.1,24.8-23.1
		c9.6,0,17.9,3.1,22.7,8.8v-9c0-7.3-6.2-12-15.7-12c-7.6,0-14.7,3-20.6,8.5l-7.4-13.2c8.8-7.9,20-11.3,31.3-11.3
		c16.5,0,31.4,6.5,31.4,27.1v46.3H753.6z M753.6,307.5v-8.9c-3.1-4.2-9-6.4-15.1-6.4c-7.4,0-13.5,4-13.5,10.8s6.1,10.7,13.5,10.7
		C744.5,313.7,750.5,311.6,753.6,307.5z"/>
	<path d="M834.4,324.7v-43.6c0-9.9-5.2-13.1-13.2-13.1c-7.4,0-13.2,4.2-16.3,8.3v48.4h-19v-98.9h19v36.5c4.6-5.3,13.3-11,25.1-11
		c15.7,0,23.3,8.6,23.3,22.5v50.9H834.4z"/>
</g>
</svg>
